<svg xmlns="http://www.w3.org/2000/svg" viewBox="0 0 356.087 284.221"><title>logo</title><g id="レイヤー_2" data-name="レイヤー 2"><g id="レイヤー_1-2" data-name="レイヤー 1"><path d="M30.53,271.07l-.023.219-1.418.271-.529,5.117,4.453-.852.529-5.117-1.417.271.023-.22,5.069-.969-.023.22-1.418.271-1.1,10.673,1.418-.271-.022.219-5.07.969.022-.219,1.418-.27.551-5.338-4.453.851-.552,5.338,1.419-.27-.022.217-5.072.97.023-.218,1.418-.272,1.1-10.674-1.418.272.023-.219Z"/><path d="M46.863,278.975a5.693,5.693,0,0,1-.769.208,1.68,1.68,0,0,1-1.133-.057.832.832,0,0,1-.39-.691l-.03,0a2.271,2.271,0,0,1-.767.973,3.535,3.535,0,0,1-1.27.457,3.805,3.805,0,0,1-.746.066,2.084,2.084,0,0,1-.683-.113.911.911,0,0,1-.476-.376,1.081,1.081,0,0,1-.123-.7,1.843,1.843,0,0,1,.256-.792,2.563,2.563,0,0,1,.515-.6,3.783,3.783,0,0,1,.683-.469c.25-.132.508-.268.773-.4q.651-.309,1.058-.515a3.65,3.65,0,0,0,.638-.4,1.251,1.251,0,0,0,.335-.4,1.411,1.411,0,0,0,.136-.5l.1-.951a1.219,1.219,0,0,0-.123-.725c-.109-.2-.348-.272-.719-.2a1.5,1.5,0,0,0-.634.281.9.9,0,0,0-.322.653c0,.03,0,.083,0,.161s0,.159,0,.25,0,.178,0,.26,0,.137,0,.167a.735.735,0,0,1-.145.39,1.065,1.065,0,0,1-.274.244,1.164,1.164,0,0,1-.315.129c-.109.025-.2.044-.271.058a2.171,2.171,0,0,1-.314.037.5.5,0,0,1-.274-.054.444.444,0,0,1-.182-.2.748.748,0,0,1-.042-.4,1.6,1.6,0,0,1,.3-.769,2.8,2.8,0,0,1,.649-.644,4.381,4.381,0,0,1,.873-.482,5.207,5.207,0,0,1,.989-.3,6.281,6.281,0,0,1,1.092-.116,1.87,1.87,0,0,1,.86.172,1.164,1.164,0,0,1,.53.565,2.027,2.027,0,0,1,.111,1.042l-.4,3.869a1.254,1.254,0,0,0,.032.506c.039.142.173.189.4.145a.815.815,0,0,0,.34-.14,1.591,1.591,0,0,0,.275-.267l.125.112A1.279,1.279,0,0,1,46.863,278.975Zm-2.1-3.529a.687.687,0,0,1-.134.2,1.862,1.862,0,0,1-.321.253c-.2.13-.41.259-.614.385a3.124,3.124,0,0,0-.558.436,2.415,2.415,0,0,0-.429.57,2.091,2.091,0,0,0-.226.793c-.012.124-.02.27-.022.433a1.341,1.341,0,0,0,.073.46.673.673,0,0,0,.26.339.7.7,0,0,0,.538.059,1.115,1.115,0,0,0,.4-.169,1.493,1.493,0,0,0,.377-.356,2.1,2.1,0,0,0,.3-.56,3.314,3.314,0,0,0,.173-.789l.213-2.061Z"/><path d="M51.915,271.523l.022-.218,2.866-.548-.119,1.155.031-.006a2.625,2.625,0,0,1,1.959-1.721,2.725,2.725,0,0,1,1.492.059,2.167,2.167,0,0,1,.948.683,2.561,2.561,0,0,1,.48,1.039,3.524,3.524,0,0,1,.073,1.134,4.4,4.4,0,0,1-.386,1.389,5.329,5.329,0,0,1-.8,1.264,5.074,5.074,0,0,1-1.136.988,3.942,3.942,0,0,1-1.4.56,1.319,1.319,0,0,1-1.1-.172,1.62,1.62,0,0,1-.55-.813l-.032.006-.544,5.259,1.049-.2-.023.219-3.945.754.023-.218,1.017-.195,1.1-10.612Zm2.5,3.645a3.4,3.4,0,0,0,.11,1.049,1.4,1.4,0,0,0,.46.738,1.154,1.154,0,0,0,.974.143,1.321,1.321,0,0,0,.711-.365,2.132,2.132,0,0,0,.454-.745A5.525,5.525,0,0,0,57.4,274.9c.068-.416.129-.878.182-1.389a14.866,14.866,0,0,0,.094-1.57,3.074,3.074,0,0,0-.131-.992.813.813,0,0,0-.374-.479,1.021,1.021,0,0,0-.644-.046,1.7,1.7,0,0,0-.943.5,3,3,0,0,0-.6.926,5.827,5.827,0,0,0-.337,1.135q-.114.6-.168,1.117C54.454,274.429,54.43,274.782,54.416,275.168Z"/><path d="M64.136,269.187l.022-.219,2.865-.549-.119,1.157.031-.006a2.628,2.628,0,0,1,1.96-1.723,2.736,2.736,0,0,1,1.49.06,2.172,2.172,0,0,1,.949.683,2.555,2.555,0,0,1,.481,1.04,3.572,3.572,0,0,1,.072,1.133,4.483,4.483,0,0,1-.385,1.389,5.384,5.384,0,0,1-.8,1.264,5.079,5.079,0,0,1-1.137.988,3.907,3.907,0,0,1-1.4.56,1.324,1.324,0,0,1-1.1-.171,1.619,1.619,0,0,1-.55-.814l-.031.007-.544,5.258,1.048-.2-.022.218-3.945.755.022-.218,1.017-.2,1.1-10.612Zm2.5,3.645a3.427,3.427,0,0,0,.111,1.049,1.416,1.416,0,0,0,.459.738,1.166,1.166,0,0,0,.976.143,1.332,1.332,0,0,0,.71-.365,2.157,2.157,0,0,0,.455-.746,5.536,5.536,0,0,0,.277-1.085c.069-.416.129-.878.182-1.389a15.209,15.209,0,0,0,.095-1.57,3.061,3.061,0,0,0-.133-.992.8.8,0,0,0-.373-.479,1.013,1.013,0,0,0-.644-.046,1.7,1.7,0,0,0-.943.5,2.988,2.988,0,0,0-.595.924,5.74,5.74,0,0,0-.336,1.136q-.115.6-.168,1.117Q66.659,272.254,66.635,272.832Z"/><path d="M82.441,265.686l-1.279.244.022-.217,2.236-.428-.023.218-.709.136q-1.059,2.038-1.826,3.638t-1.344,2.842q-.576,1.24-1.012,2.191t-.817,1.676a4.188,4.188,0,0,1-.8,1.163,2.057,2.057,0,0,1-1.065.525,1.506,1.506,0,0,1-1.1-.119.808.808,0,0,1-.343-.844,1.032,1.032,0,0,1,.353-.711,1.53,1.53,0,0,1,.706-.333.867.867,0,0,1,.539.058.391.391,0,0,1,.211.441,1.118,1.118,0,0,1-.148.473.988.988,0,0,0-.142.424.257.257,0,0,0,.066.24.237.237,0,0,0,.206.044,1.064,1.064,0,0,0,.538-.3,3.325,3.325,0,0,0,.484-.59,6.554,6.554,0,0,0,.406-.714c.122-.246.229-.471.318-.671l.835-1.8-2.17-6.47-.816.156.022-.218L79.7,266l-.022.218-1.077.207,1.412,4.151Z"/><path d="M95.5,265.626a7.966,7.966,0,0,0,.434-2,4.155,4.155,0,0,0,.008-1.034.993.993,0,0,0-.236-.559.7.7,0,0,0-.47-.2,2.73,2.73,0,0,0-.693.057l.023-.219,3.112-.6-.022.22c-.242.086-.44.167-.6.242a1.1,1.1,0,0,0-.406.339,1.9,1.9,0,0,0-.274.6,8.7,8.7,0,0,0-.206,1.058c-.032.21-.077.459-.132.75s-.127.6-.214.914a8.458,8.458,0,0,1-.327.949,4.815,4.815,0,0,1-.459.876l.579,1.127a.971.971,0,0,0,.187.24.427.427,0,0,0,.414.091.648.648,0,0,0,.384-.229,1.867,1.867,0,0,0,.261-.4,2.061,2.061,0,0,0,.149-.413c.027-.127.043-.212.048-.254s.007-.1.007-.139a.449.449,0,0,0-.025-.131l.216-.041a.3.3,0,0,1,.02.093.6.6,0,0,1,0,.147c0,.041-.027.17-.068.387a2.428,2.428,0,0,1-.3.722,2.921,2.921,0,0,1-.669.762,2.529,2.529,0,0,1-1.176.509,1.486,1.486,0,0,1-1.02-.073,1.95,1.95,0,0,1-.581-.524c-.167.154-.331.3-.49.44a4.007,4.007,0,0,1-.539.384,4.464,4.464,0,0,1-.675.328,5.056,5.056,0,0,1-.871.243,3.629,3.629,0,0,1-1.856-.02,2.192,2.192,0,0,1-1.038-.7,2.224,2.224,0,0,1-.439-1.011,3.734,3.734,0,0,1-.045-.955,3.537,3.537,0,0,1,.418-1.342,6.332,6.332,0,0,1,.832-1.168,9.743,9.743,0,0,1,1.048-1.013c.374-.309.737-.6,1.086-.872-.118-.4-.206-.733-.26-.983a2.433,2.433,0,0,1-.041-.78,2.868,2.868,0,0,1,.289-.965,4.231,4.231,0,0,1,.6-.894,3.95,3.95,0,0,1,.8-.7,2.378,2.378,0,0,1,.869-.374,1.633,1.633,0,0,1,.545-.019.861.861,0,0,1,.434.185.848.848,0,0,1,.267.43,1.916,1.916,0,0,1,.038.72,2.889,2.889,0,0,1-.357,1.039,4.718,4.718,0,0,1-1.2,1.292l2.059,4.64A5.721,5.721,0,0,0,95.5,265.626Zm-4.43-2a1.764,1.764,0,0,0-.11-.26c-.233.206-.435.393-.609.559a3.773,3.773,0,0,0-.445.5,2.331,2.331,0,0,0-.29.546,2.758,2.758,0,0,0-.145.661,3.169,3.169,0,0,0,.032.721,6.762,6.762,0,0,0,.2.918,6.606,6.606,0,0,0,.356.942,4.365,4.365,0,0,0,.49.816,2.134,2.134,0,0,0,.607.549.992.992,0,0,0,.7.127,1.908,1.908,0,0,0,.767-.339,9.056,9.056,0,0,0,.769-.643,3.573,3.573,0,0,1-.2-.323,2.744,2.744,0,0,1-.128-.287l-1.841-4.1C91.172,263.887,91.119,263.758,91.073,263.628Zm3.155-4.221a1.173,1.173,0,0,0-.138-.416.637.637,0,0,0-.283-.268.719.719,0,0,0-.456-.035c-.031.006-.1.026-.21.057a1.08,1.08,0,0,0-.351.181,1.412,1.412,0,0,0-.351.388,1.512,1.512,0,0,0-.2.659,1.932,1.932,0,0,0,.017.494,3.458,3.458,0,0,0,.127.526,4.917,4.917,0,0,0,.2.526,5.046,5.046,0,0,0,.23.47c.11-.095.241-.2.4-.337a3.78,3.78,0,0,0,.449-.46,3.1,3.1,0,0,0,.376-.585,2.014,2.014,0,0,0,.2-.712A1.985,1.985,0,0,0,94.228,259.407Z"/><path d="M108.536,256.477l-.023.219-1.418.271-.529,5.117,4.455-.852.528-5.117-1.418.271.023-.22,5.07-.969-.023.22-1.419.271-1.1,10.673,1.419-.271-.023.219-5.069.969.022-.219,1.418-.27.552-5.338-4.455.851-.551,5.338,1.418-.27-.022.218-5.07.969.022-.218,1.419-.272,1.1-10.674-1.419.272.023-.219Z"/><path d="M120.647,261.9c-.039.375-.062.749-.07,1.124a2.687,2.687,0,0,0,.139.983,1.239,1.239,0,0,0,.508.644,1.47,1.47,0,0,0,1.049.09,2.7,2.7,0,0,0,1.064-.432,3.948,3.948,0,0,0,.748-.671,3.474,3.474,0,0,0,.462-.677,2.294,2.294,0,0,0,.192-.465l.208.035a3.793,3.793,0,0,1-.327.684,3.576,3.576,0,0,1-.573.72,4.066,4.066,0,0,1-.85.637,3.781,3.781,0,0,1-1.177.416,4.16,4.16,0,0,1-1.47.044,2.479,2.479,0,0,1-1.137-.471,2.092,2.092,0,0,1-.692-.968,3.216,3.216,0,0,1-.138-1.45,4.013,4.013,0,0,1,.413-1.364,5.5,5.5,0,0,1,.88-1.278,6,6,0,0,1,1.223-1.014,4.194,4.194,0,0,1,1.44-.574,3.328,3.328,0,0,1,1.061-.033,2.029,2.029,0,0,1,.916.343,1.8,1.8,0,0,1,.614.794,2.683,2.683,0,0,1,.136,1.313l-4.547.868Zm2.669-2.437c.011-.115.022-.253.029-.418a1.529,1.529,0,0,0-.057-.478.631.631,0,0,0-.258-.364.73.73,0,0,0-.559-.063,1.609,1.609,0,0,0-.836.405,2.285,2.285,0,0,0-.489.714,3.965,3.965,0,0,0-.261.86c-.058.3-.105.589-.143.862l2.465-.473Z"/><path d="M135.656,262.32a5.744,5.744,0,0,1-.77.208,1.677,1.677,0,0,1-1.133-.059.825.825,0,0,1-.388-.69l-.032.006a2.274,2.274,0,0,1-.766.973,3.534,3.534,0,0,1-1.271.457,3.805,3.805,0,0,1-.746.066,2.093,2.093,0,0,1-.683-.113.9.9,0,0,1-.474-.377,1.069,1.069,0,0,1-.125-.7,1.843,1.843,0,0,1,.256-.791,2.543,2.543,0,0,1,.515-.6,3.891,3.891,0,0,1,.683-.469c.251-.134.508-.268.774-.4q.653-.309,1.057-.516a3.675,3.675,0,0,0,.638-.4,1.251,1.251,0,0,0,.335-.395,1.417,1.417,0,0,0,.136-.5l.1-.951a1.227,1.227,0,0,0-.122-.725c-.109-.2-.349-.271-.72-.2a1.53,1.53,0,0,0-.634.282.9.9,0,0,0-.322.653,1.468,1.468,0,0,0,0,.161c0,.075,0,.159,0,.25s0,.178,0,.259,0,.138,0,.168a.728.728,0,0,1-.146.389,1.019,1.019,0,0,1-.273.243,1.145,1.145,0,0,1-.316.131c-.108.025-.2.044-.271.058a2.171,2.171,0,0,1-.314.037.513.513,0,0,1-.274-.055.449.449,0,0,1-.182-.2.744.744,0,0,1-.041-.4,1.618,1.618,0,0,1,.3-.77,2.792,2.792,0,0,1,.649-.643,4.466,4.466,0,0,1,.873-.482,5.229,5.229,0,0,1,.989-.3,6.293,6.293,0,0,1,1.094-.116,1.875,1.875,0,0,1,.858.171,1.17,1.17,0,0,1,.53.564,2.035,2.035,0,0,1,.111,1.043l-.4,3.87a1.291,1.291,0,0,0,.032.506c.039.142.173.189.4.145a.81.81,0,0,0,.34-.14,1.67,1.67,0,0,0,.276-.267l.125.112A1.275,1.275,0,0,1,135.656,262.32Zm-2.105-3.529a.653.653,0,0,1-.134.2,1.7,1.7,0,0,1-.321.252c-.2.131-.409.261-.612.387a3.093,3.093,0,0,0-.56.434,2.447,2.447,0,0,0-.429.572,2.1,2.1,0,0,0-.226.793c-.012.124-.02.27-.022.432a1.319,1.319,0,0,0,.074.461.665.665,0,0,0,.259.339.7.7,0,0,0,.538.059,1.163,1.163,0,0,0,.4-.169,1.549,1.549,0,0,0,.378-.356,2.182,2.182,0,0,0,.3-.561,3.3,3.3,0,0,0,.173-.79l.213-2.06Z"/><path d="M144.192,249.521l-1.141,11.033,1.033-.2-.022.218-3.947.754.023-.218,1.034-.2L142.29,250.1l-1.034.2.022-.218Z"/><path d="M150.407,250.979a1.679,1.679,0,0,0,.464-.028,2.146,2.146,0,0,0,.476-.152,5.157,5.157,0,0,0,.486-.246l-.208,2.013,1.8-.345-.022.219-1.8.344-.54,5.228a2.8,2.8,0,0,0-.014.431.894.894,0,0,0,.078.346.409.409,0,0,0,.219.21.733.733,0,0,0,.413.012,1.227,1.227,0,0,0,.515-.221,1.966,1.966,0,0,0,.4-.389,2.65,2.65,0,0,0,.3-.493,4.78,4.78,0,0,0,.21-.515l.228,0a2.835,2.835,0,0,1-.405.91,2.554,2.554,0,0,1-.558.59,2.343,2.343,0,0,1-.633.342,4.316,4.316,0,0,1-.622.172,3.036,3.036,0,0,1-1.221.05,1.02,1.02,0,0,1-.6-.343.913.913,0,0,1-.175-.563c0-.216.013-.416.032-.6l.5-4.807-1.033.2.023-.218,1.032-.2.209-2.014A2.794,2.794,0,0,0,150.407,250.979Z"/><path d="M157.89,257.716l1.119-10.815-1.018.194.022-.217,2.9-.554-.626,6.056.029-.007c.053-.1.136-.251.253-.454a3.3,3.3,0,0,1,.494-.63,4.136,4.136,0,0,1,.8-.618,3.48,3.48,0,0,1,1.168-.422,1.639,1.639,0,0,1,1.518.291,1.756,1.756,0,0,1,.4,1.514l-.456,4.4,1.032-.2-.022.219-3.867.739.022-.219.956-.182.51-4.931a1.175,1.175,0,0,0-.164-.91.681.681,0,0,0-.677-.169,1.948,1.948,0,0,0-.727.316,2.61,2.61,0,0,0-.649.652,4.063,4.063,0,0,0-.5.967,5.185,5.185,0,0,0-.283,1.278l-.345,3.34.97-.187-.022.218-3.868.74.023-.217Z"/><path d="M176.3,248.06l-1.278.246.022-.219,2.234-.427-.022.218-.71.137q-1.058,2.038-1.826,3.637t-1.343,2.843q-.576,1.24-1.011,2.191c-.293.629-.565,1.19-.817,1.676a4.224,4.224,0,0,1-.8,1.163,2.059,2.059,0,0,1-1.066.524,1.513,1.513,0,0,1-1.1-.118.811.811,0,0,1-.342-.845,1.023,1.023,0,0,1,.352-.71,1.525,1.525,0,0,1,.707-.334.86.86,0,0,1,.538.059.388.388,0,0,1,.21.441,1.1,1.1,0,0,1-.147.473,1,1,0,0,0-.142.424.261.261,0,0,0,.066.24.239.239,0,0,0,.207.044,1.068,1.068,0,0,0,.537-.3,3.39,3.39,0,0,0,.484-.589,6.232,6.232,0,0,0,.405-.714c.122-.247.23-.471.32-.671l.834-1.8-2.169-6.47-.817.156.022-.218,3.914-.748-.022.218-1.079.206,1.413,4.151Z"/><path d="M316.762,128.27a.128.128,0,0,0-.147-.183l-3.233.618a.811.811,0,0,1-1.015-.94,1.648,1.648,0,0,1,1.254-1.374l3.443-.658a.284.284,0,0,0,.232-.253c.21-1.218.467-2.527.707-4.043a2.5,2.5,0,0,1,1.9-2,1.188,1.188,0,0,1,1.413,1.453c-.2,1.55-.469,2.945-.655,3.947a.144.144,0,0,0,.188.173l1.763-.337c.085-.017.219-.126.228-.212a3.111,3.111,0,0,1,2.244-2.193,1.5,1.5,0,0,1,1.879,1.741,3.026,3.026,0,0,1-2.321,2.544l-4.241.811a.342.342,0,0,0-.275.263A75.059,75.059,0,0,1,317.1,137.78a3.246,3.246,0,0,1-2.855,2.521l-.83.074a.364.364,0,0,1-.4-.554A61.435,61.435,0,0,0,316.762,128.27Zm23.7,15.585c-.087.436-.58.825-.939.725a14.493,14.493,0,0,0-4.192-.879.2.2,0,0,0-.223.168c-.461,5.255-2.043,7.826-5.393,8.382-4.229.683-5.8-2.041-5.576-4.6.321-3.5,3.8-6.06,7.067-6.644.252-.048.55-.146.844-.2a.274.274,0,0,0,.227-.213l.731-7.069a2.346,2.346,0,0,1,1.812-1.984,1.185,1.185,0,0,1,1.506,1.35l-.749,7.242c-.013.128.059.239.185.216,1.11,0,2.059-.017,2.956.065,1.836.153,2.432.374,2.069,2.292Zm-8.6.342c.014-.128-.057-.242-.182-.217a5.437,5.437,0,0,0-1.708.2c-2.286.6-3.224,1.707-3.31,2.942-.043,1.6,1.637,2.081,3.241,1.691C331.3,148.5,331.576,147.025,331.868,144.2Zm10.149-19.33c-1.664-.226-4.364-.383-6.131-.423-.288.013-.459-.332-.3-.657a3.645,3.645,0,0,1,2.941-2.158,19.881,19.881,0,0,1,4.443.032,1.254,1.254,0,0,1,.967,1.79A1.96,1.96,0,0,1,342.017,124.867Z"/><path d="M164.824,148.075a3.215,3.215,0,0,1-2.637-1.22,3.455,3.455,0,0,1-.482-3.039,5.446,5.446,0,0,1,4.986-3.894,3.216,3.216,0,0,1,2.637,1.219,3.454,3.454,0,0,1,.481,3.038h0A5.443,5.443,0,0,1,164.824,148.075Zm1.867-6.782a4.129,4.129,0,0,0-3.664,2.886,2.078,2.078,0,0,0,.25,1.846,1.878,1.878,0,0,0,1.547.679,4.128,4.128,0,0,0,3.664-2.888h0a2.08,2.08,0,0,0-.25-1.844A1.879,1.879,0,0,0,166.691,141.293Z"/><path d="M177.328,134.141a3.216,3.216,0,0,0-2.637-1.219,5.446,5.446,0,0,0-4.986,3.894,3.455,3.455,0,0,0,.482,3.039,3.215,3.215,0,0,0,2.637,1.22,5.443,5.443,0,0,0,4.985-3.9A3.454,3.454,0,0,0,177.328,134.141Z"/><path d="M284.223,126.589a.488.488,0,0,1-.36-.151.427.427,0,0,1-.1-.16.4.4,0,0,1-.04-.189.5.5,0,0,1,.14-.351.437.437,0,0,1,.17-.109.5.5,0,0,1,.38,0,.405.405,0,0,1,.16.109.473.473,0,0,1,.15.351.4.4,0,0,1-.04.189.35.35,0,0,1-.11.16A.466.466,0,0,1,284.223,126.589Z"/><path d="M270.423,138.9a.483.483,0,0,1,.03-.7h0a.491.491,0,0,1,.7.02h0a.5.5,0,0,1-.02.709h0a.5.5,0,0,1-.34.13h0A.482.482,0,0,1,270.423,138.9Zm2.69-2.489a.5.5,0,0,1,.02-.71h0a.5.5,0,0,1,.71.029h0a.5.5,0,0,1-.03.71h0a.533.533,0,0,1-.34.13h0A.5.5,0,0,1,273.113,136.409Zm2.68-2.5a.493.493,0,0,1,.03-.7h0a.491.491,0,0,1,.7.019h0a.5.5,0,0,1-.02.71h0a.5.5,0,0,1-.34.13h0A.488.488,0,0,1,275.793,133.909Zm2.69-2.49a.5.5,0,0,1,.02-.71h0a.514.514,0,0,1,.71.029h0a.484.484,0,0,1-.03.7h0a.43.43,0,0,1-.33.141h0A.489.489,0,0,1,278.483,131.419Zm2.68-2.491a.513.513,0,0,1,.03-.709h0a.5.5,0,0,1,.71.03h0a.493.493,0,0,1-.03.7h0a.494.494,0,0,1-.34.14h0A.543.543,0,0,1,281.163,128.928Z"/><path d="M268.1,141.558a.394.394,0,0,1-.19-.04.346.346,0,0,1-.16-.109.473.473,0,0,1-.15-.351.467.467,0,0,1,.15-.349.5.5,0,0,1,.7,0,.467.467,0,0,1,.15.349.473.473,0,0,1-.15.351.346.346,0,0,1-.16.109A.394.394,0,0,1,268.1,141.558Z"/><path d="M134.613,163.369a.418.418,0,0,1-.19-.04.372.372,0,0,1-.16-.11.358.358,0,0,1-.11-.161.4.4,0,0,1-.04-.189.435.435,0,0,1,.04-.191.361.361,0,0,1,.11-.16.5.5,0,0,1,.54-.109.353.353,0,0,1,.16.109.361.361,0,0,1,.11.16.435.435,0,0,1,.04.191.513.513,0,0,1-.5.5Z"/><path d="M116.253,180.358a.5.5,0,0,1,.01-.71h0a.5.5,0,0,1,.71.021h0a.492.492,0,0,1-.02.7h0a.453.453,0,0,1-.34.14h0A.488.488,0,0,1,116.253,180.358Zm3-2.859a.5.5,0,0,1,.02-.71h0a.5.5,0,0,1,.7.019h0a.513.513,0,0,1-.01.71h0a.538.538,0,0,1-.35.141h0A.523.523,0,0,1,119.253,177.5Zm3-2.851a.5.5,0,0,1,.01-.71h0a.5.5,0,0,1,.71.011h0a.5.5,0,0,1-.02.71h0a.494.494,0,0,1-.34.14h0A.5.5,0,0,1,122.253,174.648Zm3-2.859a.5.5,0,0,1,.02-.71h0a.491.491,0,0,1,.7.019h0a.493.493,0,0,1-.01.7h0a.541.541,0,0,1-.35.139h0A.511.511,0,0,1,125.253,171.789Zm3-2.861a.5.5,0,0,1,.01-.709h0a.5.5,0,0,1,.71.019h0a.492.492,0,0,1-.02.7h0a.45.45,0,0,1-.34.141h0A.509.509,0,0,1,128.253,168.928Zm3-2.86a.5.5,0,0,1,.02-.71h0a.492.492,0,0,1,.7.021h0a.5.5,0,0,1-.01.71h0a.541.541,0,0,1-.35.139h0A.514.514,0,0,1,131.253,166.068Z"/><path d="M113.613,183.369a.457.457,0,0,1-.35-.15.485.485,0,0,1,0-.7.353.353,0,0,1,.16-.109.491.491,0,0,1,.38,0,.353.353,0,0,1,.16.109.485.485,0,0,1,0,.7.372.372,0,0,1-.16.11A.418.418,0,0,1,113.613,183.369Z"/><path d="M219.613,110.369a.5.5,0,0,1-.35-.851.353.353,0,0,1,.16-.109.491.491,0,0,1,.38,0,.353.353,0,0,1,.16.109.485.485,0,0,1,0,.7.372.372,0,0,1-.16.11A.418.418,0,0,1,219.613,110.369Z"/><path d="M201.253,127.358a.5.5,0,0,1,.02-.71h0a.493.493,0,0,1,.7.021h0a.492.492,0,0,1-.02.7h0a.453.453,0,0,1-.34.14h0A.5.5,0,0,1,201.253,127.358Zm3-2.859a.513.513,0,0,1,.01-.71h0a.5.5,0,0,1,.71.019h0a.513.513,0,0,1-.01.71h0a.538.538,0,0,1-.35.141h0A.523.523,0,0,1,204.253,124.5Zm3-2.861a.492.492,0,0,1,.02-.7h0a.483.483,0,0,1,.7.011h0a.5.5,0,0,1-.02.71h0a.494.494,0,0,1-.34.14h0A.477.477,0,0,1,207.253,121.638Zm3-2.849a.513.513,0,0,1,.01-.71h0a.5.5,0,0,1,.71.019h0a.5.5,0,0,1-.01.7h0a.494.494,0,0,1-.35.139h0A.511.511,0,0,1,210.253,118.789Zm3-2.861a.5.5,0,0,1,.02-.709h0a.492.492,0,0,1,.7.019h0a.484.484,0,0,1-.02.7h0a.45.45,0,0,1-.34.141h0A.509.509,0,0,1,213.253,115.928Zm3-2.86a.5.5,0,0,1,.02-.71h0a.492.492,0,0,1,.7.021h0a.5.5,0,0,1-.02.71h0a.5.5,0,0,1-.34.139h0A.48.48,0,0,1,216.253,113.068Z"/><path d="M198.613,130.369a.473.473,0,0,1-.35-.15.358.358,0,0,1-.11-.161.4.4,0,0,1-.04-.189.47.47,0,0,1,.15-.351.353.353,0,0,1,.16-.109.491.491,0,0,1,.38,0,.353.353,0,0,1,.16.109.47.47,0,0,1,.15.351.4.4,0,0,1-.04.189.358.358,0,0,1-.11.161.372.372,0,0,1-.16.11A.418.418,0,0,1,198.613,130.369Z"/><path d="M32.075,171.99c.083-.86-.643-.872-1.446-.616a17.363,17.363,0,0,0-2.609,1.577,7.591,7.591,0,0,1-5.3,4.884,19.61,19.61,0,0,0-2.291,2.91c-.358.6.037.931.662,1.093a11.363,11.363,0,0,0,10.98-9.581A2.246,2.246,0,0,1,32.075,171.99Z"/><path d="M29.019,162.722a11.052,11.052,0,0,0-6.5-3.255,11.367,11.367,0,0,0-12.7,9.64,11.1,11.1,0,0,0,2.152,8.325c.105.138.229.256.341.388a.745.745,0,0,0,1.13-.234,1.252,1.252,0,0,1,.122-.144c.315-.528.652-1.047,1-1.56a1.536,1.536,0,0,0,.064-1.25,7.341,7.341,0,0,1-1.068-4.994,7.572,7.572,0,0,1,7.468-6.49,7.424,7.424,0,0,1,.993.065,7.322,7.322,0,0,1,3.821,1.708.792.792,0,0,0,.905.1q1.006-.556,2.027-1.024A.794.794,0,0,0,29.019,162.722Z"/><ellipse cx="61.674" cy="144.713" rx="2.894" ry="2.2" transform="translate(-89.471 101.118) rotate(-50.828)"/><ellipse cx="66.685" cy="139.076" rx="2.894" ry="2.2" transform="translate(-83.256 102.926) rotate(-50.828)"/><circle cx="207.593" cy="186.492" r="1.5"/><circle cx="213.78" cy="183.258" r="1.461"/><path d="M220.321,182.237a1.423,1.423,0,1,1,1.422-1.423A1.423,1.423,0,0,1,220.321,182.237Z"/><path d="M227.078,180.438a1.384,1.384,0,1,1,1.383-1.384A1.384,1.384,0,0,1,227.078,180.438Z"/><path d="M233.956,179.177a1.345,1.345,0,1,1,1.345-1.345A1.345,1.345,0,0,1,233.956,179.177Z"/><path d="M240.915,178.543a1.306,1.306,0,1,1,1.306-1.306A1.306,1.306,0,0,1,240.915,178.543Z"/><path d="M247.9,178.728a1.267,1.267,0,1,1,1.267-1.267A1.267,1.267,0,0,1,247.9,178.728Z"/><path d="M254.8,179.74a1.229,1.229,0,1,1,1.228-1.228A1.228,1.228,0,0,1,254.8,179.74Z"/><path d="M261.637,181.1a1.19,1.19,0,1,1,1.189-1.19A1.19,1.19,0,0,1,261.637,181.1Z"/><path d="M268.55,182.032a1.151,1.151,0,1,1,1.151-1.151A1.151,1.151,0,0,1,268.55,182.032Z"/><path d="M275.529,182.119a1.112,1.112,0,1,1,1.112-1.112A1.112,1.112,0,0,1,275.529,182.119Z"/><path d="M282.48,181.405a1.073,1.073,0,1,1,1.073-1.073A1.074,1.074,0,0,1,282.48,181.405Z"/><path d="M289.348,180.087a1.035,1.035,0,1,1,1.034-1.035A1.034,1.034,0,0,1,289.348,180.087Z"/><path d="M296.1,178.233a1,1,0,1,1,1-1A1,1,0,0,1,296.1,178.233Z"/><path d="M302.616,175.682a.957.957,0,1,1,.956-.957A.956.956,0,0,1,302.616,175.682Z"/><path d="M308.77,172.353a.918.918,0,1,1,.918-.918A.918.918,0,0,1,308.77,172.353Z"/><circle cx="314.688" cy="167.728" r="0.879"/><path d="M320.833,165.256a.84.84,0,1,1,.841-.84A.84.84,0,0,1,320.833,165.256Z"/><path d="M327.381,162.8a.8.8,0,1,1,.8-.8A.8.8,0,0,1,327.381,162.8Z"/><path d="M334.178,161.157a.763.763,0,1,1,.763-.763A.763.763,0,0,1,334.178,161.157Z"/><path d="M341.113,160.093a.724.724,0,1,1,.724-.724A.724.724,0,0,1,341.113,160.093Z"/><path d="M265.671,143.108c-1.579.652-2.714,1.169-3.643,1.595h0c-2.463.64-3.233-1.034-3.409-3.613a38.283,38.283,0,0,1,.367-4.445c.547-3.585,1.034-7.158,1.868-10.678a1.633,1.633,0,0,0-1.715-2.192,3.469,3.469,0,0,0-2.913,2.6,84.578,84.578,0,0,0-2,11.424,64.068,64.068,0,0,0,.568,16.692c.158.75,1.086.873,1.749.145l9.428-10.983C266.232,143.36,266.043,142.915,265.671,143.108Z"/><path d="M294.806,134.9a23.344,23.344,0,0,0-3.26-10,3.333,3.333,0,0,0-4.464-1.188l-.566.349a.956.956,0,0,0-.474,1.171c1.838,2.708,3.163,6.956,3.832,11.867a1.834,1.834,0,0,0,2.783,1.508A3.365,3.365,0,0,0,294.806,134.9Z"/><path d="M233.137,121.546a4.377,4.377,0,0,0-3.265,3.146.474.474,0,0,1-.332.363l-4.72.9c-3.158.6-3.412-1.236-3.232-2.912l1.379-12.8a1.694,1.694,0,0,0-2.087-2,3.51,3.51,0,0,0-2.653,2.908l-1.348,12.516h0c-.349,3.244-1.914,4.176-3.708,4.519h0l-15.847,3.03a2.321,2.321,0,0,0-1.725,1.89,1.147,1.147,0,0,0,1.39,1.354l16.182-3.094c1.5-.287,2.616,1.1,2.62,2.679l-.077.745v0c-.056.253-.064.363-.039.382l-.491,4.747a.2.2,0,0,1-.252.169,6.154,6.154,0,0,0-2.816-.061,10.088,10.088,0,0,0-7.959,8.722c-.405,5.057,2.746,6.435,7.018,5.5a5.923,5.923,0,0,0,1.37-.56h0c.929-.583,1.58-.472,1.385,1.2a45.773,45.773,0,0,1-6.833,16.361,100.193,100.193,0,0,1-9.357,9.284,56.848,56.848,0,0,1-11.161,7.489,53.038,53.038,0,0,1-12.622,4.481c-1.084.273-2.2.446-3.315.629s-2.224.4-3.342.528l-3.354.355c-1.118.118-2.238.111-3.357.173a58.244,58.244,0,0,1-13.352-1.238,126.261,126.261,0,0,0-13.643-2.436,62.441,62.441,0,0,0-14.018.322c-1.157.142-2.3.369-3.447.549s-2.3.373-3.427.65l-3.407.762c-1.128.3-2.248.637-3.372.954a58.951,58.951,0,0,0-12.906,5.579c-4.067,2.356-7.74,5.16-11.548,7.48a56.389,56.389,0,0,1-12.075,5.564c-2.148.61-4.272,1.289-6.48,1.722-1.1.228-2.181.526-3.29.7l-3.317.553a62.244,62.244,0,0,1-13.286.613,95.256,95.256,0,0,1-13.28-2.237,63.563,63.563,0,0,0-14.019-1.608,82.322,82.322,0,0,0-14.015,1.5l-.019,0a2.073,2.073,0,1,0,.77,4.073l.062-.012a78.284,78.284,0,0,1,13.235-1.554,59.69,59.69,0,0,1,13.22,1.4,98.614,98.614,0,0,0,13.8,2.172,65.879,65.879,0,0,0,14.078-.78l3.449-.61c1.151-.19,2.277-.509,3.417-.758,2.283-.473,4.519-1.206,6.765-1.872a59.8,59.8,0,0,0,12.747-6.023c3.983-2.489,7.581-5.292,11.42-7.559a55.763,55.763,0,0,1,12.181-5.405c8.572-2.557,17.636-4.15,26.511-3.381a124.424,124.424,0,0,1,13.392,2.266,60.917,60.917,0,0,0,13.936,1.151c1.164-.075,2.338-.082,3.494-.214l3.469-.4c1.154-.145,2.288-.388,3.433-.577s2.285-.388,3.42-.684a55.4,55.4,0,0,0,13.133-4.808,59.085,59.085,0,0,0,11.512-7.885,102.771,102.771,0,0,0,9.559-9.676,8.174,8.174,0,0,0,1.971-1.868,44.607,44.607,0,0,0,8.841-21.792,28.832,28.832,0,0,0,.136-6.447c.007-.06.013-.121.02-.183l.776-7.888c.17-1.729,1.484-4.6,3.829-5.053l8.244-1.577a4.454,4.454,0,0,0,3.317-3.634A2.157,2.157,0,0,0,233.137,121.546Zm-21.571,28.907c-1.8.345-2.886-.528-2.693-2.965a4.79,4.79,0,0,1,3.421-4.074,1.932,1.932,0,0,1,2.333,1.893C214.607,148.911,212.825,150.213,211.566,150.453Z"/><path d="M143.533,155.826a226.531,226.531,0,0,0,18.79-18.878c1.066-1.224,1.316-3.072.537-4.063-.733-.88-2.286-.644-3.233.558a222.11,222.11,0,0,1-21.861,23.742c-1.307,1.269-1.623,3.19-.664,4.146,5.818,5.728,10.607,12.312,16.459,19.415.786.929,2.412.558,3.366-.705,1.093-1.469,1.242-3.476.355-4.568A183.952,183.952,0,0,0,143.1,160.851h0c-1.344-1.248-1.213-3.517.425-5.017Z"/><path d="M54.8,162.409a.491.491,0,0,0-.38,0,.353.353,0,0,0-.16.109.361.361,0,0,0-.11.16.435.435,0,0,0-.04.191.469.469,0,0,0,.15.35.457.457,0,0,0,.35.15.418.418,0,0,0,.19-.04.372.372,0,0,0,.16-.11.469.469,0,0,0,.15-.35.435.435,0,0,0-.04-.191.361.361,0,0,0-.11-.16A.353.353,0,0,0,54.8,162.409Z"/><path d="M29.223,193.388a.5.5,0,0,0,.08.7.455.455,0,0,0,.31.11.5.5,0,0,0,.39-.181.508.508,0,0,0-.08-.71A.5.5,0,0,0,29.223,193.388Z"/><path d="M47.5,172.428a.5.5,0,1,0-.7.081.51.51,0,0,0,.31.11A.479.479,0,0,0,47.5,172.428Z"/><path d="M26.723,196.469a.5.5,0,1,0,.78.629.5.5,0,0,0-.78-.629Z"/><path d="M31.723,190.308a.5.5,0,0,0,.07.7.562.562,0,0,0,.32.11.479.479,0,0,0,.39-.191.5.5,0,1,0-.78-.62Z"/><path d="M35,187.848a.5.5,0,0,0-.08-.7.5.5,0,1,0,.08.7Z"/><path d="M51.723,165.638a.5.5,0,0,0,.07.7.5.5,0,1,0,.63-.771A.487.487,0,0,0,51.723,165.638Z"/><path d="M42.5,178.6a.5.5,0,0,0-.07-.7.516.516,0,0,0-.71.071.5.5,0,0,0,.07.7.491.491,0,0,0,.71-.071Z"/><path d="M40,181.688a.5.5,0,1,0-.78-.639.5.5,0,0,0,.39.82A.5.5,0,0,0,40,181.688Z"/><path d="M37.5,184.768a.5.5,0,0,0-.08-.7.487.487,0,0,0-.7.07.5.5,0,0,0,.08.7.455.455,0,0,0,.31.11A.5.5,0,0,0,37.5,184.768Z"/><path d="M45,175.518a.5.5,0,0,0-.08-.7.487.487,0,0,0-.7.07.5.5,0,0,0,.08.7.455.455,0,0,0,.31.11A.5.5,0,0,0,45,175.518Z"/><path d="M24.963,199.518a.353.353,0,0,0-.16-.109.491.491,0,0,0-.38,0,.353.353,0,0,0-.16.109.361.361,0,0,0-.11.16.435.435,0,0,0-.04.191.5.5,0,0,0,1,0,.435.435,0,0,0-.04-.191A.361.361,0,0,0,24.963,199.518Z"/><path d="M58.973,148.357c-.878-.612-2.277-.165-3.158.964l-9.31,11.269h0a8.729,8.729,0,0,1-6.315,2.663l0,.006a30.55,30.55,0,0,0-4.63.628,27.841,27.841,0,0,0-11.541,5.267,36.28,36.28,0,0,0-4.07,3.54A24.412,24.412,0,0,0,12,188.132c-.633,6.122.668,9.474,2.817,12,.787.929,3.183,1.071,4.847-.807l22.693-28.1c1-1.241,2.146-2.207,3.259-1.612,3.451,2.239,4.216,5.821,3.754,10.289a22.048,22.048,0,0,1-.524,2.98,4.761,4.761,0,0,1-3.7,3.541v0l-.152.016c-6.395.983-10.674,5.4-10.416,9.732a4.325,4.325,0,0,0,5.516,4.105c3.7-.706,6.431-3.322,8.442-6.513h0c.728-1.237,2.7-2.492,4.505-1.717.581.226,1.193.488,1.819.787.388.226,1.073-.145,1.3-.669l.516-1c1.057-2.843.152-3.75-1.152-4.221-.057-.022-.11-.036-.166-.056l0,0c-1.9-.514-2.242-2.943-1.93-4.763.006-.034,0-.062.008-.095a20.975,20.975,0,0,0,.407-2.74c.547-5.293-.494-9.733-3.492-12.428h0l-.013-.01c-.148-.133-.307-.254-.464-.378-1.084-.974-1.523-2.173-.039-3.963h0l9.032-10.894A2.407,2.407,0,0,0,58.973,148.357ZM39.1,169.711h0L17.737,196.336a.348.348,0,0,1-.413.02c-1.424-1.589-1.731-5.43-1.428-8.368a18.911,18.911,0,0,1,5.565-11.745c.133-.145,4.175-3.978,4.3-4.063a19.665,19.665,0,0,1,9.332-4.363,13.222,13.222,0,0,1,3.4-.268C39.566,167.715,40.071,168.494,39.1,169.711Zm5.445,23.236c-1.271,2.017-2.6,3.141-3.807,3.372-1.319.252-2.264-.287-2.354-1.109-.168-1.743,1.2-3.6,4.864-4.286A1.385,1.385,0,0,1,44.54,192.947Z"/><path d="M68.833,188.188a.491.491,0,0,0-.1.681.473.473,0,0,0,.39.2.461.461,0,0,0,.28-.09.482.482,0,0,0,.11-.679A.493.493,0,0,0,68.833,188.188Z"/><path d="M68.993,169.949a.472.472,0,0,0-.22-.641.483.483,0,0,0-.65.22.494.494,0,0,0,.23.65.52.52,0,0,0,.21.05A.481.481,0,0,0,68.993,169.949Z"/><path d="M70.783,165.9a.483.483,0,0,0-.54.8.448.448,0,0,0,.27.079.462.462,0,0,0,.4-.21A.481.481,0,0,0,70.783,165.9Z"/><path d="M71.493,191.108a.492.492,0,0,0,.09.681.573.573,0,0,0,.3.1.485.485,0,1,0-.39-.78Z"/><path d="M66.313,177.789a.433.433,0,0,1,.05.01.486.486,0,1,0-.48-.54A.472.472,0,0,0,66.313,177.789Z"/><path d="M67.083,184.648a.488.488,0,0,0-.28.63.475.475,0,0,0,.45.311.486.486,0,0,0,.17-.031.473.473,0,0,0,.28-.62A.486.486,0,0,0,67.083,184.648Z"/><path d="M67.013,173.9a.534.534,0,0,0,.13.021.485.485,0,0,0,.14-.95.485.485,0,0,0-.6.33A.478.478,0,0,0,67.013,173.9Z"/><path d="M66.3,180.778a.486.486,0,0,0-.43.54.5.5,0,0,0,.48.431h.06a.489.489,0,0,0-.11-.971Z"/><path d="M72.553,162.839a.477.477,0,0,0,.05.679.465.465,0,0,0,.31.12.482.482,0,0,0,.37-.16.468.468,0,0,0-.05-.679A.477.477,0,0,0,72.553,162.839Z"/><path d="M83.053,194.1a.484.484,0,0,0-.46.51.475.475,0,0,0,.48.46h.02a.483.483,0,0,0,.46-.51A.489.489,0,0,0,83.053,194.1Z"/><path d="M86.883,193.589a.487.487,0,0,0,.11.96c.03,0,.07-.01.1-.01v-.011a.473.473,0,0,0,.37-.569A.483.483,0,0,0,86.883,193.589Z"/><path d="M79.193,193.909a.485.485,0,1,0-.14.96h.07a.482.482,0,0,0,.07-.96Z"/><path d="M75.383,159.988a.488.488,0,0,0-.04.681.5.5,0,0,0,.37.17.454.454,0,0,0,.32-.13.485.485,0,1,0-.65-.721Z"/><path d="M75.493,192.909a.48.48,0,1,0-.36.89.392.392,0,0,0,.18.04.5.5,0,0,0,.45-.3A.483.483,0,0,0,75.493,192.909Z"/><path d="M110.8,146.619a4.544,4.544,0,0,0-3.272,3.206.41.41,0,0,1-.331.364l-8.465,1.618h0c-2.3.439-4.016-.349-3.747-2.948h0l.481-4.648a1.659,1.659,0,0,0-2.094-1.938,3.348,3.348,0,0,0-2.586,2.834l-.461,4.163c-.207,1.868-.648,3.888-2.4,4.543l-8.5,1.626a2.337,2.337,0,0,0-1.784,1.9,1.159,1.159,0,0,0,1.449,1.343l8.228-1.574c1.3-.248,2.034,1.287,1.852,3.041h0l-.875,8.473a2.014,2.014,0,0,0,2.649,2.253c6.35-1.693,10.483-.144,9.8,6.467-.493,4.774-3.463,9.6-12.16,15.225-.378.252-.555.827-.221,1,.912.845,3.1.187,4.528-.566,6.972-3.734,12.376-9.927,13.072-16.66.789-7.642-4.043-10.587-10.009-10.111h-.017c-2.007.029-2.6-1.4-2.435-3.038l.257-2.489c.239-2.311,2.2-5.25,4.593-5.707l11.815-2.26a4.385,4.385,0,0,0,3.316-3.634A2.178,2.178,0,0,0,110.8,146.619Z"/><circle cx="202.612" cy="189.333" r="1.5"/><path d="M196.816,193.188a1.241,1.241,0,1,1,1.242-1.241A1.241,1.241,0,0,1,196.816,193.188Z"/><path d="M190.818,195.04a.983.983,0,1,1,.983-.983A.983.983,0,0,1,190.818,195.04Z"/><path d="M184.614,196.182a.724.724,0,1,1,.724-.724A.724.724,0,0,1,184.614,196.182Z"/><path d="M15.017,79.522c-.477-.251-.481-1.016.075-1.548,8.593-8.8,16.848-22.676,20.862-30,1.248-2.369,3.893-3.726,5.914-3.089s2.52,3.095,1.2,5.394C36.8,62.3,29.48,72.069,22.329,77.442c-2.445,1.831-5.072,3.014-7.151,2.134Z"/><path d="M198.567,23.61a1.153,1.153,0,0,1,.99-1.275h0a1.142,1.142,0,0,1,1.275.991h0a1.141,1.141,0,0,1-.99,1.275h0c-.046,0-.091.011-.149.011h0A1.147,1.147,0,0,1,198.567,23.61Zm-3.632.638a1.125,1.125,0,0,1-.762-1.412h0a1.123,1.123,0,0,1,1.411-.762h0a1.13,1.13,0,0,1,.763,1.412h0a1.142,1.142,0,0,1-1.093.819h0A1.057,1.057,0,0,1,194.935,24.248Zm8.015-1.583a1.129,1.129,0,0,1,.534-1.514h0a1.131,1.131,0,0,1,1.514.536h0a1.126,1.126,0,0,1-.534,1.514h0a1.076,1.076,0,0,1-.49.113h0A1.134,1.134,0,0,1,202.95,22.665Zm-12.284-1.126a1.136,1.136,0,0,1,.1-1.605h0a1.135,1.135,0,0,1,1.6.113h0a1.136,1.136,0,0,1-.1,1.605h0a1.124,1.124,0,0,1-.751.285h0A1.11,1.11,0,0,1,190.666,21.539Zm16.188-1.071a1.14,1.14,0,0,1,.114-1.616h0a1.149,1.149,0,0,1,1.605.113h0a1.147,1.147,0,0,1-.114,1.606h0a1.108,1.108,0,0,1-.751.284h0A1.15,1.15,0,0,1,206.854,20.468ZM188.56,16.951a1.146,1.146,0,0,1,.945-1.31h0a1.153,1.153,0,0,1,1.309.956h0a1.149,1.149,0,0,1-.956,1.3h0a.952.952,0,0,1-.182.011h0A1.134,1.134,0,0,1,188.56,16.951Zm21.482.352a1.135,1.135,0,0,1-.33-1.57h0a1.153,1.153,0,0,1,1.582-.331h0a1.141,1.141,0,0,1,.319,1.583h0a1.134,1.134,0,0,1-.945.512h0A1.063,1.063,0,0,1,210.042,17.3Zm-20.355-3.882a1.132,1.132,0,0,1-.8-1.4h0a1.152,1.152,0,0,1,1.4-.8h0a1.143,1.143,0,0,1,.8,1.4v.011a1.145,1.145,0,0,1-1.1.831h0A.918.918,0,0,1,189.687,13.421Zm22.54-.022a1.136,1.136,0,0,1-.8-1.377h0c.012-.024.012-.046.023-.068h0a1.116,1.116,0,0,1,1.389-.8h0a1.13,1.13,0,0,1,.808,1.388h0c0,.011-.011.011-.011.023h0a.041.041,0,0,1-.011.034h0a1.129,1.129,0,0,1-1.093.843h0A1.49,1.49,0,0,1,212.227,13.4Zm-21-4.178a1.152,1.152,0,0,1-.33-1.582h0a1.14,1.14,0,0,1,1.582-.319h0a1.124,1.124,0,0,1,.319,1.571h0a1.111,1.111,0,0,1-.945.513h0A1.137,1.137,0,0,1,191.224,9.221Zm20.491-1.229a1.139,1.139,0,0,1,.945-1.31h0a1.126,1.126,0,0,1,1.3.945h.011a1.144,1.144,0,0,1-.945,1.3h0a1.166,1.166,0,0,1-.182.022h0A1.137,1.137,0,0,1,211.715,7.992Zm-17.77-2.334a1.149,1.149,0,0,1,.1-1.616h0a1.136,1.136,0,0,1,1.6.113h0a1.136,1.136,0,0,1-.1,1.606h0a1.13,1.13,0,0,1-.751.284h0A1.135,1.135,0,0,1,193.945,5.658Zm16.188-1.116V4.531a1.146,1.146,0,0,1,.1-1.6h0a1.137,1.137,0,0,1,1.6.114h.012a1.137,1.137,0,0,1-.114,1.6h0a1.162,1.162,0,0,1-.751.285h0A1.149,1.149,0,0,1,210.133,4.542ZM197.508,2.926a1.135,1.135,0,0,1,.523-1.514h0a1.149,1.149,0,0,1,1.526.523h0a1.143,1.143,0,0,1-.535,1.525h0a1.1,1.1,0,0,1-.49.115h0A1.134,1.134,0,0,1,197.508,2.926Zm9.414-.4a1.157,1.157,0,0,1-.773-1.423h0a1.141,1.141,0,0,1,1.423-.763h0a1.124,1.124,0,0,1,.762,1.411h0a1.141,1.141,0,0,1-1.093.82h0A1.592,1.592,0,0,1,206.922,2.528Zm-5.248-1.241A1.149,1.149,0,0,1,202.653,0h0V.012h0a1.123,1.123,0,0,1,1.275.978h0a1.138,1.138,0,0,1-.978,1.275h0a.538.538,0,0,1-.149.013h0A1.142,1.142,0,0,1,201.674,1.287Z"/><path d="M66.416,120.079A.563.563,0,0,1,66.13,120L46.473,108.533a.569.569,0,1,1,.574-.982L66.7,119.018a.569.569,0,0,1-.287,1.061Z"/><path d="M69.692,116.8a.553.553,0,0,1-.286-.078L49.749,105.258a.569.569,0,1,1,.574-.982l19.656,11.466a.569.569,0,0,1-.287,1.06Z"/><path d="M72.968,113.526a.554.554,0,0,1-.287-.078L53.025,101.982A.569.569,0,0,1,53.6,101l19.657,11.467a.569.569,0,0,1-.287,1.06Z"/><path d="M76.244,110.25a.563.563,0,0,1-.286-.078L56.3,98.706a.569.569,0,1,1,.574-.983l19.656,11.466a.569.569,0,0,1-.287,1.061Z"/><path d="M107.764,87.857a81.169,81.169,0,0,1-14.008,12.731c-.538.358-.789,1.173-.323,1.51l.3.37c1.6,1.482,4.536,1.346,6.877-.294,4.7-3.455,7.5-7.142,10.739-11,1.054-1.308,1.186-3.378.186-4.21C110.523,86.221,108.9,86.617,107.764,87.857Z"/><path d="M111.514,57.236c1.049,1.164,3.084.858,4.5-.688,1.405-1.462,1.723-3.738.674-4.9a13.884,13.884,0,0,0-5.639-3.607,5.993,5.993,0,0,0-5.9,1.3,1.3,1.3,0,0,0-.188,1.825A63.471,63.471,0,0,1,111.514,57.236Z"/><path d="M146.638,50.264a36.733,36.733,0,0,0,7.384-6.012c1.4-1.374,1.808-3.752.845-4.932-.887-1.108-3.178-.756-4.4.587a82.576,82.576,0,0,1-9.717,9.183c-.556.533-.712,1.244-.247,1.581C141.948,52.013,144.5,51.612,146.638,50.264Z"/><path d="M155.623,55.447a6.139,6.139,0,0,0-4.707,5.138.6.6,0,0,1-.474.539L135.76,63.931a.986.986,0,0,0-.8.877l-.174,1.858a.987.987,0,0,0,1.168,1.061l18.768-3.588a6.328,6.328,0,0,0,4.708-5.161A3.061,3.061,0,0,0,155.623,55.447Z"/><path d="M156.411,98.361a8.075,8.075,0,0,1-2.3-.337c-4.315-1.271-6.921-5.839-7.84-7.744-2.146-4.443-9.147-11.931-9.217-12.006l-2.5-2.666L138.2,75.4a43.656,43.656,0,0,1,19.308,3.848c4.826,2.333,7.707,5.979,7.9,10a8.388,8.388,0,0,1-4,7.58A9.549,9.549,0,0,1,156.411,98.361ZM145.7,79.27a1.406,1.406,0,0,0-1.3,2.276,42.614,42.614,0,0,1,4.942,7.249c1.5,3.114,3.645,5.34,5.73,5.954a5.481,5.481,0,0,0,4.554-.836,4.912,4.912,0,0,0,2.371-4.5c-.133-2.733-2.312-5.318-5.977-7.09A36.172,36.172,0,0,0,145.7,79.27Z"/><path d="M131.357,35.723a4.87,4.87,0,0,0-3.682,4.11l-2.289,22.143a5.693,5.693,0,0,1-4.748,4.846h0L99.756,70.815a2.76,2.76,0,0,0-2.072,2.271,1.418,1.418,0,0,0,1.753,1.624l21.2-4.054h0c2.176-.416,3.818.322,3.573,2.69h0l-3.453,33.41a2.357,2.357,0,0,0,2.972,2.754,4.874,4.874,0,0,0,3.757-4.04l3.028-29.3.005-.047.731-7.066,0-.012.492-4.732c0-.013,0-.022,0-.036L134.4,38.547A2.448,2.448,0,0,0,131.357,35.723Z"/><path d="M60.024,56.092a6.125,6.125,0,0,0-3.492,2.287,1.091,1.091,0,0,1-.718.477L39.2,62.033A2.759,2.759,0,0,0,37.13,64.3a1.309,1.309,0,0,0,1.687,1.468L49.131,63.8h0c2.942-.563,4.49,1.628,3.485,4.616C44.042,91.388,28.464,113.5,7.187,127.79c-.538.358-.619,1.14-.143,1.39l.237.125c1.967,1.157,5.287-.244,7.25-1.471C34.651,114.956,52.706,92.166,61.1,64.322a.943.943,0,0,1,.488-.69,6.218,6.218,0,0,0,2.252-4.009A3.062,3.062,0,0,0,60.024,56.092Z"/><path d="M207.3,78.961a4.755,4.755,0,0,0-3.672,4.023l-.5,4.868a.677.677,0,0,1-.471.517l-4.43.847a.293.293,0,0,1-.381-.353l1.06-10.257a2.4,2.4,0,0,0-3.057-2.738,4.846,4.846,0,0,0-3.673,4.025l-1.06,10.256a.584.584,0,0,1-.471.517L186.3,91.5a.3.3,0,0,1-.382-.354l.53-5.127a2.4,2.4,0,0,0-3.056-2.739,4.87,4.87,0,0,0-3.759,4.042l-.529,5.127a3.092,3.092,0,0,0,3.81,3.531l22.234-4.253a6.32,6.32,0,0,0,4.708-5.158l.5-4.868A2.4,2.4,0,0,0,207.3,78.961Z"/><path d="M245.463,45.851a6.136,6.136,0,0,0-4.708,5.159.7.7,0,0,1-.479.6l-30.069,5.749c-1.991.38-5.921.707-5.69-1.53l.03-.3c.188-1.816,1.966-3.858,5.615-4.556h0l15.028-2.873a6.23,6.23,0,0,0,4.708-5.16l1.536-14.861a1.1,1.1,0,0,1,.413-.761,6.138,6.138,0,0,0,1.6-3.373,3.033,3.033,0,0,0-3.811-3.531,5.769,5.769,0,0,0-3.389,2.1,1.078,1.078,0,0,1-.717.478l-20.369,3.981a6.136,6.136,0,0,0-4.709,5.16l-3.9,37.718a3.062,3.062,0,0,0,3.81,3.532l26.817-5.129c2.354-.361,4.73.443,4.564,2.045,0,.007,0,.009,0,.015l-.778,7.529h0a4.99,4.99,0,0,1-3.767,4.177c-.864.1-1.874.216-3.475.441-.426.081-.745.739-.431.935,1.933,1.5,6.285,3.823,11.45,7.182.7.461,2.263-.093,2.479-2.178L239.3,68.329a1.1,1.1,0,0,1,.413-.762,6.371,6.371,0,0,0,1.6-3.373,3.033,3.033,0,0,0-3.81-3.531,5.767,5.767,0,0,0-3.39,2.1,1.5,1.5,0,0,1-.718.477l-23.973,4.584a.61.61,0,0,0-.3.018c-1.985.379-5.9.742-5.691-1.512l.047-.457c.187-1.793,1.932-3.8,5.492-4.522l35.594-6.806a6.137,6.137,0,0,0,4.709-5.16A3.033,3.033,0,0,0,245.463,45.851Zm-39.426-4.726.362-3.5h0c.3-2.876,1.777-7.48,6.169-8.32h0l7.337-1.4c2.437-.466,5,.34,4.829,2l-.111,1.071c-.139,1.343-2,2.626-4.193,3.046-.025,0-.045.012-.07.017l-3.39.651a2.452,2.452,0,0,0-1.789,1.961,1.21,1.21,0,0,0,1.438,1.43l3.766-.724c1.51-.272,3.567.118,3.379,1.93h0l-.286,2.769h0c-.151,1.454-1.028,2.513-3.279,3.17h0l-9.011,1.723C206.048,47.934,205.732,44.077,206.037,41.125Z"/><path d="M212.172,39c1.554-.3,1.859-3.752,0-3.324S210.618,39.3,212.172,39Z"/><path d="M309.988,52.6l-5.416-5.88a6.646,6.646,0,0,0-6.163-2.019L275.7,49.144a6.64,6.64,0,0,0-3.878,2.328L262.371,63.1a6.648,6.648,0,0,0-1.463,3.6l-.842,9.368a6.645,6.645,0,0,0,1.73,5.1l5.417,5.881a6.642,6.642,0,0,0,6.163,2.018l22.707-4.445a6.648,6.648,0,0,0,3.878-2.328l9.453-11.624a6.636,6.636,0,0,0,1.462-3.6l.843-9.369A6.644,6.644,0,0,0,309.988,52.6Zm-34.76,15.577c-.131.523-.292.709-.715.83-.521.153-1.025.278-1.455.361a7.222,7.222,0,0,1-1.335.145,2.767,2.767,0,0,1-.9-.126,1.427,1.427,0,0,1-.89-1.591.641.641,0,0,1,.507-.57.427.427,0,0,1,.371.091.447.447,0,0,1,.146.362.508.508,0,0,0,.423.595,4.364,4.364,0,0,0,1.695-.145c.367-.079,1.032-.25,1.792-.5h0a.319.319,0,0,1,.3.053.309.309,0,0,1,.108.269A1.963,1.963,0,0,1,275.228,68.174Zm.1-4.9a5.849,5.849,0,0,1-.9,1.244,1.194,1.194,0,0,1-.831.423.7.7,0,0,1-.121-.01.266.266,0,0,1-.213-.166.328.328,0,0,1,.055-.329,12.219,12.219,0,0,0,.749-1.2l-3.2.611a.405.405,0,0,1-.348-.087.422.422,0,0,1-.142-.339.592.592,0,0,1,.462-.514l3.966-.758a.765.765,0,0,1,.5-.312.589.589,0,0,1,.521.134.6.6,0,0,1,.178.512A.973.973,0,0,1,275.324,63.279Zm3.4,13.919-1.613,1.877a.436.436,0,0,1-.32.154.365.365,0,0,1-.093-.012.332.332,0,0,1-.239-.256,11.218,11.218,0,0,1-.1-2.921,14.568,14.568,0,0,1,.347-1.985.8.8,0,0,1,.686-.6.463.463,0,0,1,.4.156.522.522,0,0,1,.1.469c-.121.511-.2,1.046-.279,1.561l-.037.25a5.306,5.306,0,0,0-.041,1.29c.075-.031.154-.068.246-.11.165-.076.371-.171.661-.29a.243.243,0,0,1,.3.069A.273.273,0,0,1,278.724,77.2Zm4.5-.812a.624.624,0,0,1-.251.056.494.494,0,0,1-.242-.061.539.539,0,0,1-.262-.413,4.757,4.757,0,0,0-.623-1.946.366.366,0,0,1,.143-.488l.1-.059a.134.134,0,0,1,.024-.012.771.771,0,0,1,1.023.288,4.153,4.153,0,0,1,.584,1.8A.775.775,0,0,1,283.222,76.386Zm1.174-9.967c-.133.525-.294.712-.717.831-.517.154-1.021.28-1.454.362a7.212,7.212,0,0,1-1.333.146,2.778,2.778,0,0,1-.9-.127,1.425,1.425,0,0,1-.889-1.591.648.648,0,0,1,.507-.57.424.424,0,0,1,.369.091.441.441,0,0,1,.146.363.51.51,0,0,0,.424.595,4.4,4.4,0,0,0,1.7-.146c.369-.079,1.036-.252,1.793-.5h0a.312.312,0,0,1,.294.053.3.3,0,0,1,.108.268A1.9,1.9,0,0,1,284.4,66.419Zm.094-4.893a5.835,5.835,0,0,1-.9,1.245,1.194,1.194,0,0,1-.83.422.712.712,0,0,1-.123-.011.261.261,0,0,1-.211-.164.329.329,0,0,1,.055-.33,12.18,12.18,0,0,0,.749-1.2l-3.2.611a.413.413,0,0,1-.346-.087.423.423,0,0,1-.144-.338.593.593,0,0,1,.46-.516l3.967-.758a.774.774,0,0,1,.5-.311.583.583,0,0,1,.521.134.6.6,0,0,1,.178.512A.971.971,0,0,1,284.49,61.526ZM289.1,75.214l-1.613,1.878a.442.442,0,0,1-.321.153.32.32,0,0,1-.092-.013.33.33,0,0,1-.239-.255,11.174,11.174,0,0,1-.1-2.92,14.62,14.62,0,0,1,.348-1.986.8.8,0,0,1,.685-.6.476.476,0,0,1,.4.157.519.519,0,0,1,.1.469c-.12.507-.2,1.036-.276,1.549l-.04.262a5.3,5.3,0,0,0-.04,1.29c.074-.032.154-.068.247-.111.165-.076.37-.17.659-.29a.241.241,0,0,1,.3.071A.27.27,0,0,1,289.1,75.214Zm-.395-8.306a1.638,1.638,0,0,1-.287.026.74.74,0,0,1-.422-.1.308.308,0,0,1-.128-.209.359.359,0,0,1,.254-.385c1.944-.528,2.859-1.326,2.98-2.59a.941.941,0,0,0-.213-.83c-.263-.228-.8-.248-1.611-.057a.451.451,0,0,1-.5-.129.484.484,0,0,1,.008-.538c.31-.572.855-1.514,1.545-2.706l.143-.246-1.5.286a.369.369,0,0,1-.328-.084.378.378,0,0,1-.113-.322.523.523,0,0,1,.413-.453l2.23-.425a.777.777,0,0,1,.5-.322.572.572,0,0,1,.7.645.947.947,0,0,1-.672.787l-1.4,2.341a2.073,2.073,0,0,1,1.622.436,1.719,1.719,0,0,1,.488,1.428C292.263,65.286,290.915,66.543,288.7,66.908ZM293.6,74.4a.61.61,0,0,1-.252.057.486.486,0,0,1-.242-.063.532.532,0,0,1-.261-.412,4.76,4.76,0,0,0-.624-1.946.366.366,0,0,1,.144-.488l.1-.058a.092.092,0,0,1,.024-.013.773.773,0,0,1,1.024.288,4.174,4.174,0,0,1,.583,1.8A.774.774,0,0,1,293.6,74.4ZM298,63.547c-.172.178-1.043,1.078-1.719,1.657a.433.433,0,0,1-.267.1.342.342,0,0,1-.16-.04.322.322,0,0,1-.16-.32l.711-6.773a.8.8,0,0,1,.617-.676.5.5,0,0,1,.608.561l-.547,5.292a5.558,5.558,0,0,0,.641-.22.258.258,0,0,1,.308.092A.268.268,0,0,1,298,63.547Zm5.592-.9a1,1,0,0,1-.768.809c-.351.1-.575.163-.769.2a4.56,4.56,0,0,1-.856.092,1.481,1.481,0,0,1-1.031-.314,1.377,1.377,0,0,1-.343-1.219.635.635,0,0,1,.516-.555.427.427,0,0,1,.517.452c0,.225.057.3.1.341.107.087.381.159,1.083,0,.279-.062.689-.2,1.051-.312l.158-.051a.3.3,0,0,1,.293.062.3.3,0,0,1,.085.289Zm-.2-4.034a.864.864,0,0,1-.093.014c-.381.443-.791.892-1.025,1.121a.3.3,0,0,1-.2.081.253.253,0,0,1-.146-.046.249.249,0,0,1-.08-.306c.1-.27.207-.538.29-.751l.055-.141-1.521.29a.4.4,0,0,1-.362-.095.418.418,0,0,1-.125-.356.6.6,0,0,1,.469-.5l2.271-.444a.8.8,0,0,1,.5-.311h0a.59.59,0,0,1,.521.134.6.6,0,0,1,.178.511A.952.952,0,0,1,303.4,58.612Z"/><path d="M354.33,12.581,348.914,6.7a6.643,6.643,0,0,0-6.163-2.018L320.043,9.128a6.646,6.646,0,0,0-3.878,2.328l-9.452,11.623a6.641,6.641,0,0,0-1.463,3.6l-.842,9.368a6.644,6.644,0,0,0,1.73,5.1l5.416,5.88a6.646,6.646,0,0,0,6.163,2.019l22.708-4.446a6.646,6.646,0,0,0,3.878-2.328l9.452-11.624a6.638,6.638,0,0,0,1.463-3.6l.842-9.368A6.644,6.644,0,0,0,354.33,12.581Zm-17.443,6.354a.794.794,0,0,1,.775-.2l.068.029a1.178,1.178,0,0,1,.347.2.485.485,0,0,1,0,.668.553.553,0,0,1-.426.217.406.406,0,0,1-.234-.071l-.009-.007c-.08-.062-.171-.123-.26-.182s-.171-.115-.245-.172a.3.3,0,0,1-.126-.228A.328.328,0,0,1,336.887,18.935Zm-11.178.766a1.059,1.059,0,0,1,1.013-.405,3.52,3.52,0,0,1,.861.3.494.494,0,0,1,.246.319.74.74,0,0,1-.663.877.474.474,0,0,1-.232-.059c-.145-.076-.64-.329-1.124-.532a.294.294,0,0,1-.173-.2A.349.349,0,0,1,325.709,19.7Zm-7.43,5.762c-.074,1.017-.213,2.315-.335,3.459l-.1.955a.427.427,0,0,1-.234.327.347.347,0,0,1-.338,0l-.34-.227c-.438-.3-.852-.572-1.1-.757a.293.293,0,0,1-.087-.265.287.287,0,0,1,.265-.215c.311-.034.6-.072.768-.1.031-.285.142-1.37.273-2.729.036-.353.069-.835-.063-.973-.031-.032-.1-.072-.307-.06a4.252,4.252,0,0,0-.657.138l-.582.139a14.347,14.347,0,0,1-2.046,4.546c-.5.714-.914,1.074-1.25,1.074a.442.442,0,0,1-.1-.012.3.3,0,0,1-.171-.162.483.483,0,0,1,.063-.411,16.172,16.172,0,0,0,2.241-4.767c-.216.051-.477.113-.733.168a.427.427,0,0,1-.382-.08.456.456,0,0,1-.16-.377.673.673,0,0,1,.517-.577l1.052-.249c.13-.562.252-1.3.315-1.706a.816.816,0,0,1,.644-.649.5.5,0,0,1,.443.142.5.5,0,0,1,.121.454l-.048.276c-.068.39-.142.82-.222,1.189l.775-.179h0a1.523,1.523,0,0,1,1.364.212A1.619,1.619,0,0,1,318.279,25.463Zm2.182-2.262a.67.67,0,0,1-.489.256h-.012a.432.432,0,0,1-.328-.142,4.8,4.8,0,0,0-1.116-.9.263.263,0,0,1-.136-.175.376.376,0,0,1,.08-.319.991.991,0,0,1,1.049-.233,2.968,2.968,0,0,1,.993.653A.632.632,0,0,1,320.461,23.2Zm2.766,13.983-1.61,1.876a.442.442,0,0,1-.321.153.357.357,0,0,1-.092-.012.335.335,0,0,1-.24-.257,11.215,11.215,0,0,1-.1-2.92,14.622,14.622,0,0,1,.347-1.985.8.8,0,0,1,.686-.6.466.466,0,0,1,.4.157.514.514,0,0,1,.1.468c-.121.513-.2,1.048-.279,1.566l-.037.246a5.305,5.305,0,0,0-.041,1.29c.075-.032.154-.068.247-.111.166-.076.371-.17.66-.29a.239.239,0,0,1,.3.072A.271.271,0,0,1,323.227,37.184Zm1.577-8.331a1.762,1.762,0,0,1-.657.18.425.425,0,0,1-.274-.082.286.286,0,0,1-.092-.245.374.374,0,0,1,.176-.271c1.742-1.052,2.108-1.671,2.2-2.509a.876.876,0,0,0-.173-.738,1.044,1.044,0,0,0-.865-.122c-.273.053-.507.108-.715.168a.574.574,0,0,1-.527-.1.548.548,0,0,1-.176-.483l.263-2.548a.8.8,0,0,1,.618-.676.5.5,0,0,1,.608.56l-.216,2.089.148-.029h.006a2,2,0,0,1,1.8.314,1.72,1.72,0,0,1,.443,1.506A3.968,3.968,0,0,1,324.8,28.853Zm2.922,7.517a.616.616,0,0,1-.25.056.493.493,0,0,1-.241-.061.534.534,0,0,1-.262-.412,4.771,4.771,0,0,0-.624-1.947.365.365,0,0,1,.145-.488l.093-.058.026-.014a.773.773,0,0,1,1.023.29,4.135,4.135,0,0,1,.583,1.794A.779.779,0,0,1,327.726,36.37Zm3.234-11.684a33.9,33.9,0,0,0,1.15-3.492l-.7.132a.4.4,0,0,1-.352-.093.419.419,0,0,1-.126-.359.6.6,0,0,1,.459-.5l.967-.184c.093-.372.166-.726.24-1.09a.8.8,0,0,1,.659-.624.5.5,0,0,1,.429.156.529.529,0,0,1,.1.473c-.051.267-.11.54-.184.845l.445-.085a.942.942,0,0,1,.682-.613.592.592,0,0,1,.519.132.6.6,0,0,1,.18.513.96.96,0,0,1-.733.812l-1.337.256a29.92,29.92,0,0,1-1.193,3.811.96.96,0,0,1-.767.589h-.026a.446.446,0,0,1-.368-.178A.532.532,0,0,1,330.96,24.686ZM333.6,35.2l-1.611,1.877a.439.439,0,0,1-.321.153.369.369,0,0,1-.092-.012.331.331,0,0,1-.239-.257,11.177,11.177,0,0,1-.1-2.92,14.715,14.715,0,0,1,.348-1.985.8.8,0,0,1,.685-.6.478.478,0,0,1,.4.158.516.516,0,0,1,.1.468c-.119.5-.2,1.026-.274,1.534l-.042.278a5.3,5.3,0,0,0-.04,1.29l.248-.112c.165-.076.37-.17.658-.289a.241.241,0,0,1,.3.071A.269.269,0,0,1,333.6,35.2Zm1.5-9.267a1.085,1.085,0,0,1-.413-.8.679.679,0,0,1,.367-.671.519.519,0,0,1,.424-.032.431.431,0,0,1,.252.248c.1.278.209.437,1.048.257a9.718,9.718,0,0,0,1.283-.356.3.3,0,0,1,.3.057.283.283,0,0,1,.08.281l-.022.127,0,.016a1,1,0,0,1-.78.832c-.326.082-.63.152-.922.207a3.911,3.911,0,0,1-.73.078A1.447,1.447,0,0,1,335.1,25.932Zm3,8.454a.624.624,0,0,1-.251.056.487.487,0,0,1-.242-.062.536.536,0,0,1-.261-.412,4.766,4.766,0,0,0-.623-1.946.363.363,0,0,1,.146-.488l.09-.057a.174.174,0,0,1,.027-.014.773.773,0,0,1,1.024.289,4.15,4.15,0,0,1,.583,1.794A.781.781,0,0,1,338.1,34.386Zm-.094-12.431a.826.826,0,0,1-.089.015,12.83,12.83,0,0,1-1.028,1.121.3.3,0,0,1-.2.082.248.248,0,0,1-.224-.356c.046-.124.106-.281.167-.438s.119-.31.172-.45l-1.147.219a.4.4,0,0,1-.489-.44.6.6,0,0,1,.471-.514l1.89-.361a.807.807,0,0,1,.507-.323h0a.586.586,0,0,1,.519.135.6.6,0,0,1,.18.51A.949.949,0,0,1,338.007,21.955Zm.876-3.084a.576.576,0,0,1-.428.216.393.393,0,0,1-.232-.072c-.087-.068-.176-.127-.264-.186s-.175-.116-.25-.174a.3.3,0,0,1-.125-.227.33.33,0,0,1,.109-.264.79.79,0,0,1,.767-.2l.024.009-.082.185h0l.126-.165a1.173,1.173,0,0,1,.354.207A.5.5,0,0,1,338.883,18.871Zm4.552,4.482c-.105.11-1.015,1.056-1.719,1.659a.436.436,0,0,1-.267.1.32.32,0,0,1-.16-.04.316.316,0,0,1-.159-.319l.709-6.773a.8.8,0,0,1,.618-.676.5.5,0,0,1,.608.56l-.547,5.293a5.692,5.692,0,0,0,.641-.22.256.256,0,0,1,.308.092A.268.268,0,0,1,343.435,23.353Zm5.592-.9a1,1,0,0,1-.769.809c-.34.1-.572.162-.769.2a4.577,4.577,0,0,1-.856.093,1.481,1.481,0,0,1-1.031-.315,1.372,1.372,0,0,1-.342-1.218.637.637,0,0,1,.516-.556.427.427,0,0,1,.516.454c0,.223.057.3.105.34.106.087.381.159,1.084,0,.273-.061.677-.192,1.034-.308l.174-.056h0a.294.294,0,0,1,.378.351Zm-.2-4.036a.656.656,0,0,1-.092.014c-.383.445-.793.895-1.025,1.122a.3.3,0,0,1-.2.081.253.253,0,0,1-.147-.046.248.248,0,0,1-.079-.3c.1-.254.195-.508.275-.714l.07-.178-1.521.29a.4.4,0,0,1-.362-.1.418.418,0,0,1-.126-.355.6.6,0,0,1,.47-.5l2.271-.444a.8.8,0,0,1,.5-.312h0a.594.594,0,0,1,.521.133.6.6,0,0,1,.178.513A.949.949,0,0,1,348.827,18.417Z"/><path d="M209.086,205.094a.813.813,0,0,0,.147-.014l13.5-2.581a.78.78,0,1,0-.292-1.532l-13.5,2.582a.779.779,0,0,0,.145,1.545Z"/><path d="M223.325,242.328a6.7,6.7,0,0,0-3.743,2.493,1.989,1.989,0,0,1-.871.447l-.781.167c-2.837.6-2.786-1.943-2.53-5.1.107-.659.2-1.37.285-2.164.207-2-1.018-3.451-2.982-3.077a5.84,5.84,0,0,0-4.407,4.49c-2.9,15.616-7.6,28.3-16.879,41.77-.432.644-.427,1.484.2,1.645,2.211.794,5.235-1.842,7.041-4.246a83.311,83.311,0,0,0,11.166-20.4c.008-.02.015-.034.022-.054,1.085-2.929,4.017-7.9,5.94-8.268h0c1.387-.265,2.191,1.469,1.822,5.042L215.99,270.7c-.4,3.851-2.036,5.5-4.869,6.017-.683.117-1.329.222-1.833.29-.561.107-.911.829-.578,1.139a67.046,67.046,0,0,0,11.115,6.013c.792.315,2.078-.584,2.2-1.728l3.172-31.572a1.665,1.665,0,0,1,.452-.835,6.435,6.435,0,0,0,1.861-3.818A3.361,3.361,0,0,0,223.325,242.328Z"/><path d="M229.134,213.622a6.944,6.944,0,0,0-5.17,5.665.765.765,0,0,1-.527.662l-4.021.769-8.325,1.591-9.634,1.842a3.158,3.158,0,0,0-2.368,2.511,1.556,1.556,0,0,0,1.924,1.784c6.641-1.269,27.135-5.281,27.135-5.281a6.741,6.741,0,0,0,5.17-5.667A3.362,3.362,0,0,0,229.134,213.622Z"/><path d="M262.894,232.05c1.759-1.929,2.107-4.426,1.144-5.74-1.031-1.578-3.555-1.1-4.982.3-7.095,7.436-11.359,11.431-23.141,19.858-.684.411-.95,1.211-.532,1.6,1.392,1.6,3.937.931,6.357-.28C250.783,242.782,257.64,237.638,262.894,232.05Z"/><path d="M239.815,225.61c1.843.77,4.986-1.233,6.921-3.1a47.6,47.6,0,0,0,5.247-5.91l.013-.014c2.044-2.542,5.365-3.126,8.29-3.685l20.207-3.864a6.941,6.941,0,0,0,5.168-5.665,3.361,3.361,0,0,0-4.182-3.878,6.737,6.737,0,0,0-5.17,5.665.737.737,0,0,1-.517.568l-14.571,2.787h0c-3.615.692-3.81-.766-3.213-2.6.426-.967.816-1.92,1.177-2.864l.026-.061,0,0c.639-1.673,1.192-3.322,1.7-4.983.676-2.094-.7-3.889-2.642-3.706a5.425,5.425,0,0,0-4.628,3.974c-3.116,9.763-6.165,15.3-13.911,25.486C239.193,224.515,239.2,225.356,239.815,225.61Z"/><path d="M251.235,245.5a5.325,5.325,0,0,0-4.032,4.419l-2.919,28.25a2.558,2.558,0,0,0,3.262,3.023,5.227,5.227,0,0,0,4.032-4.42l2.919-28.248A2.587,2.587,0,0,0,251.235,245.5Z"/><path d="M343.924,232.205c-10.379-5.224-17.033-10.066-23.909-18.175-.765-.987-2.4-.744-3.538.526-3.869,4.316-11.745,12.417-18.1,18.093-.921.853-1.107,2.145-.4,2.753a2.418,2.418,0,0,0,3.12-.572c4.866-4.757,8.782-8.763,11.954-12.169l0,.008a6.217,6.217,0,0,1,9.036-.364c.038.037.067.057.1.091a80.441,80.441,0,0,0,16.59,12.994c1.564.978,2.957.552,4.115-.831l.978-1.246C344.279,232.7,344.273,232.375,343.924,232.205Z"/><path d="M267.3,243.109l10.112-9.63a.651.651,0,0,0-.9-.944l-10.592,10.087-.013.012-7.445,7.09a.652.652,0,0,0-.011.933l21.071,21.07a.651.651,0,0,0,.921,0l7.407-7.406a.649.649,0,0,0,0-.924Z"/><path d="M208.749,209.316a.813.813,0,0,0,.147-.014l13.5-2.579a.78.78,0,1,0-.292-1.532l-13.5,2.58a.779.779,0,0,0,.145,1.545Z"/><path d="M208.33,213.54a.822.822,0,0,0,.147-.014l13.5-2.58a.78.78,0,0,0-.292-1.532l-13.5,2.58a.78.78,0,0,0,.145,1.546Z"/><path d="M207.858,217.763a.933.933,0,0,0,.147-.013l13.5-2.58a.78.78,0,1,0-.292-1.532l-13.5,2.58a.779.779,0,0,0,.146,1.545Z"/><path d="M235.986,232.34a.521.521,0,0,0,.258-.927.525.525,0,1,0-.258.927Z"/><path d="M238.446,229.366a.455.455,0,0,0,.325-.193.51.51,0,0,0-.066-.735.541.541,0,0,0-.746.068.531.531,0,0,0,.079.744A.515.515,0,0,0,238.446,229.366Z"/><path d="M233.051,234.465a.531.531,0,0,0,.079.744.524.524,0,0,0,.4.116.562.562,0,0,0,.337-.183.529.529,0,0,0-.813-.677Z"/><path d="M230.6,237.449a.509.509,0,0,0,.066.734.515.515,0,0,0,.409.116.521.521,0,0,0,.258-.927A.516.516,0,0,0,230.6,237.449Z"/><path d="M228.135,240.446a.493.493,0,0,0-.108.386.5.5,0,0,0,.206.345.372.372,0,0,0,.182.092.424.424,0,0,0,.2.015.43.43,0,0,0,.193-.068.363.363,0,0,0,.151-.137.509.509,0,0,0-.1-.731A.528.528,0,0,0,228.135,240.446Z"/></g></g></svg>